<svg width="50" height="51" viewBox="0 0 50 51" fill="none" xmlns="http://www.w3.org/2000/svg">
<g clip-path="url(#clip0_5_6429)">
<path d="M47.2069 44.4151L43.0799 36.1608C42.8655 35.732 42.3439 35.5582 41.915 35.7726C41.4861 35.9871 41.3122 36.5085 41.5267 36.9375L45.6538 45.1918C45.8679 45.6199 45.6937 46.1424 45.2653 46.3567C45.1432 46.4177 45.0132 46.4487 44.8787 46.4487C44.5471 46.4487 44.2489 46.2646 44.1008 45.9682L39.9965 37.7597C42.2376 34.5826 44.0725 30.5378 45.2625 26.0972C46.7385 20.5887 47.0512 15.111 46.1429 10.673C45.1919 6.02541 43.0023 3.01963 39.9777 2.20918L34.3867 0.71112C31.5861 -0.0392751 28.4131 1.22528 25.4528 4.27208C22.6536 7.15315 20.2148 11.4442 18.5859 16.3547C18.4349 16.8098 18.6815 17.3012 19.1366 17.452C19.592 17.6037 20.0831 17.3565 20.234 16.9014C21.7822 12.2344 24.0778 8.17903 26.6982 5.48214C29.2007 2.90684 31.7714 1.80839 33.9372 2.38828C36.2933 3.01963 38.0382 5.55343 38.8505 9.52289C39.7057 13.7019 39.4015 18.8966 37.994 24.1495C36.5865 29.4027 34.2527 34.0534 31.4225 37.2448C28.7344 40.2764 25.9564 41.5978 23.6001 40.967C21.4582 40.393 19.7904 38.1929 18.9042 34.772C17.9768 31.1919 17.9857 26.6002 18.9291 21.8429C19.0225 21.3726 18.7167 20.9156 18.2463 20.8224C17.7755 20.7288 17.3191 21.0348 17.2257 21.5051C16.2324 26.5134 16.2317 31.3797 17.2233 35.2074C18.2732 39.2603 20.3783 41.9013 23.1507 42.6442L24.4144 42.9828L23.8598 44.8314C23.4471 46.2071 24.2305 47.662 25.6061 48.0749C25.8538 48.1492 26.1066 48.186 26.358 48.186C26.7832 48.186 27.2045 48.0806 27.5894 47.8734C28.202 47.5434 28.6495 46.9949 28.8494 46.3285L29.0996 45.4947C29.2374 45.0353 28.9768 44.5514 28.5176 44.4135C28.0584 44.276 27.5743 44.5365 27.4364 44.9956L27.1862 45.8294C27.1195 46.0514 26.9704 46.2343 26.7662 46.3443C26.562 46.4543 26.3274 46.4783 26.1052 46.4115C25.6467 46.274 25.3854 45.7889 25.5229 45.3303L26.0924 43.4324L28.7416 44.1422C29.2759 44.2854 29.8217 44.3563 30.3758 44.3563C30.4821 44.3563 30.5889 44.3527 30.6958 44.3475V47.8953C30.6958 49.3315 31.8643 50.5001 33.3005 50.5001C34.7369 50.5001 35.9053 49.3315 35.9053 47.8953V44.1618C35.9053 43.6822 35.5165 43.2935 35.037 43.2935C34.5576 43.2935 34.1688 43.6821 34.1688 44.1618V47.8953C34.1688 48.3741 33.7793 48.7635 33.3005 48.7635C32.8217 48.7635 32.4322 48.3741 32.4322 47.8953V44.0424C34.3916 43.456 36.3987 42.0534 38.3127 39.8949C38.4848 39.7008 38.6549 39.5011 38.8235 39.2971L42.5473 46.7447C42.9916 47.6331 43.8848 48.1849 44.8784 48.1849C45.2793 48.1849 45.6817 48.0896 46.042 47.9094C47.3268 47.2673 47.8493 45.6998 47.2069 44.4151ZM38.317 37.1231C38.2975 37.1467 38.2795 37.1712 38.2627 37.1966C37.8584 37.7431 37.4418 38.26 37.0134 38.743C35.1531 40.8409 33.2497 42.1191 31.4729 42.4987C31.4221 42.504 31.3729 42.5143 31.325 42.528C30.5867 42.6655 29.8712 42.6471 29.1911 42.465L27.9437 42.1308C29.5475 41.4074 31.1654 40.152 32.7218 38.397C35.7274 35.0077 38.1954 30.1075 39.6715 24.5991C41.1475 19.0906 41.4601 13.6129 40.5519 9.17484C40.0816 6.87649 39.308 4.98048 38.2807 3.55215L39.5284 3.88653C41.8846 4.51788 43.6296 7.05168 44.4418 11.0212C45.297 15.2003 44.9928 20.3949 43.5852 25.6479C42.4001 30.0703 40.5585 34.0656 38.317 37.1231Z" fill="url(#paint0_linear_5_6429)"/>
<path d="M28.9419 21.6021L12.2966 16.1092L12.2735 13.0627C12.2698 12.5854 11.8819 12.2011 11.4053 12.2011C11.4031 12.2011 11.4008 12.2011 11.3986 12.2011C10.9191 12.2047 10.5333 12.5964 10.537 13.0759L10.5556 15.5348L9.36038 15.1404L9.33734 12.1089C9.33372 11.6316 8.94573 11.2473 8.46917 11.2473C8.46692 11.2473 8.46467 11.2473 8.46243 11.2473C7.98293 11.2509 7.59709 11.6426 7.6008 12.1221L7.61936 14.5659L6.40128 14.164V11.1612C6.40128 10.6816 6.01251 10.293 5.53302 10.293C5.05352 10.293 4.66475 10.6816 4.66475 11.1612V14.5393L2.68495 17.256C2.40253 17.6436 2.48769 18.1867 2.87529 18.4691C3.02958 18.5816 3.20849 18.6357 3.38593 18.6357C3.6539 18.6357 3.91846 18.512 4.08828 18.2787L5.87989 15.8202L7.09015 16.2197L5.62413 18.2058C5.33936 18.5916 5.4213 19.1352 5.80704 19.42C5.96222 19.5344 6.14288 19.5898 6.32199 19.5898C6.5881 19.5898 6.85089 19.4676 7.02121 19.2371L8.82581 16.7924L10.0174 17.1857L8.56018 19.1597C8.27541 19.5455 8.35735 20.0891 8.74309 20.3739C8.89837 20.4883 9.07894 20.5436 9.25814 20.5436C9.52425 20.5436 9.78704 20.4215 9.95736 20.191L11.7532 17.7583L28.3979 23.2512C28.4882 23.281 28.5799 23.2952 28.6702 23.2952C29.0346 23.2952 29.3741 23.0638 29.4946 22.6989C29.6447 22.2433 29.3974 21.7524 28.9419 21.6021Z" fill="#57F5FE"/>
<path d="M32.5886 7.42015C30.6753 6.90765 28.5201 7.71693 26.5206 9.69985C24.6784 11.5268 23.0424 14.2727 21.9138 17.4318C21.7524 17.8833 21.9878 18.3802 22.4394 18.5416C22.8907 18.7027 23.3877 18.4676 23.5491 18.0161C24.5922 15.0964 26.0818 12.5808 27.7435 10.9328C29.2861 9.40308 30.8471 8.75073 32.1393 9.09741C33.5775 9.48276 34.6955 11.1357 35.2063 13.6323C35.7677 16.3752 35.5663 19.791 34.6393 23.2504C33.7124 26.71 32.179 29.7689 30.3214 31.8636C28.6306 33.7702 26.8362 34.6428 25.3978 34.2574C22.7423 33.5459 21.4119 28.671 22.3032 22.9182C22.3765 22.4444 22.0519 22.0007 21.578 21.9274C21.1029 21.8531 20.6604 22.1784 20.5871 22.6524C19.5261 29.5006 21.3195 34.9626 24.9483 35.9348C25.3299 36.0371 25.7192 36.0876 26.1139 36.0876C27.9197 36.0875 29.8358 35.0284 31.6205 33.0157C33.6535 30.7232 35.3211 27.4148 36.3166 23.6999C38.4586 15.7053 36.8212 8.55434 32.5886 7.42015Z" fill="url(#paint1_linear_5_6429)"/>
<path d="M33.2632 17.3938C32.8999 15.6186 32.0219 14.4593 30.7909 14.1296C28.85 13.6097 26.6945 15.3186 25.3 18.4838C25.1067 18.9226 25.3057 19.4351 25.7446 19.6283C26.1834 19.8218 26.6959 19.6228 26.8892 19.1838C27.9903 16.6845 29.4899 15.5785 30.3415 15.8067C30.8959 15.9553 31.3407 16.6607 31.562 17.7419C31.8294 19.0486 31.7308 20.6858 31.2844 22.3515C31.2571 22.4533 31.2288 22.5538 31.1995 22.6532C31.1897 22.6864 31.1794 22.7189 31.1694 22.7519C31.1495 22.8175 31.1297 22.8832 31.1091 22.9479C31.0966 22.9869 31.0835 23.0251 31.0708 23.0638C31.0518 23.1214 31.0328 23.1791 31.0132 23.236C30.9992 23.2764 30.9847 23.316 30.9705 23.3559C30.9512 23.4098 30.9319 23.4638 30.9122 23.5168C30.8971 23.5574 30.8815 23.5972 30.8661 23.6373C30.8463 23.6886 30.8265 23.7398 30.8062 23.7904C30.7902 23.8302 30.7739 23.8697 30.7576 23.909C30.7371 23.9584 30.7166 24.0077 30.6958 24.0563C30.679 24.0954 30.662 24.1339 30.645 24.1724C30.6239 24.2203 30.6026 24.2675 30.5811 24.3145C30.5637 24.3524 30.5463 24.39 30.5286 24.4273C30.5067 24.4735 30.4847 24.5193 30.4625 24.5647C30.4446 24.6013 30.4267 24.6377 30.4086 24.6736C30.386 24.7185 30.3631 24.7628 30.3401 24.807C30.3219 24.8419 30.3037 24.877 30.2852 24.9114C30.2617 24.9552 30.238 24.9984 30.2141 25.0414C30.1959 25.0745 30.1775 25.1077 30.1591 25.1402C30.1344 25.1835 30.1095 25.2257 30.0846 25.268C30.0665 25.2988 30.0484 25.3299 30.0302 25.3602C30.0038 25.4038 29.9771 25.4462 29.9505 25.4886C29.9334 25.5161 29.9162 25.5438 29.8989 25.5709C29.8697 25.6164 29.8402 25.6605 29.8107 25.7046C29.7956 25.7271 29.7806 25.7504 29.7654 25.7727C29.7269 25.829 29.6884 25.8837 29.6494 25.9377C29.643 25.9465 29.6367 25.9559 29.6302 25.9647C29.5847 26.0275 29.5389 26.0884 29.4929 26.1478C29.481 26.1632 29.469 26.1777 29.4571 26.1928C29.4232 26.236 29.3892 26.2789 29.3552 26.3202C29.3384 26.3407 29.3215 26.36 29.3046 26.3799C29.2753 26.4145 29.246 26.4492 29.2167 26.4824C29.198 26.5036 29.1793 26.5237 29.1605 26.5443C29.1329 26.5748 29.1052 26.6052 29.0775 26.6343C29.058 26.655 29.0383 26.6748 29.0186 26.6949C28.9918 26.7223 28.965 26.7497 28.9382 26.7758C28.918 26.7956 28.8978 26.8144 28.8777 26.8335C28.8514 26.8583 28.8252 26.8829 28.799 26.9065C28.7785 26.9249 28.7582 26.9427 28.7377 26.9606C28.7117 26.9831 28.6859 27.0051 28.6601 27.0265C28.6397 27.0434 28.6194 27.0598 28.599 27.0759C28.5733 27.0964 28.5476 27.1161 28.522 27.1353C28.5016 27.1506 28.4813 27.1655 28.461 27.1801C28.4356 27.1983 28.4103 27.2157 28.385 27.2326C28.3648 27.2462 28.3446 27.2596 28.3245 27.2725C28.2991 27.2886 28.274 27.3038 28.2489 27.3186C28.2292 27.3303 28.2094 27.3422 28.1897 27.3531C28.1643 27.3673 28.1392 27.38 28.1141 27.3929C28.095 27.4027 28.0758 27.4129 28.0567 27.4218C28.0313 27.4339 28.0062 27.4444 27.9812 27.4551C27.9629 27.463 27.9443 27.4713 27.926 27.4784C27.9001 27.4884 27.8744 27.4969 27.8488 27.5054C27.8319 27.5111 27.8147 27.5176 27.7981 27.5225C27.7693 27.5311 27.7409 27.5377 27.7127 27.5443C27.6995 27.5474 27.686 27.5514 27.6729 27.5542C27.6322 27.5625 27.5919 27.5686 27.5522 27.5728C27.5392 27.5741 27.5266 27.574 27.5136 27.5749C27.487 27.5767 27.4604 27.5787 27.4342 27.5786C27.4044 27.5785 27.3752 27.5759 27.3461 27.5731C27.335 27.572 27.3236 27.5722 27.3128 27.5708C27.2729 27.5657 27.2339 27.5582 27.1959 27.5478C26.3736 27.3275 25.8125 25.8498 25.8313 23.9543C25.8358 23.4749 25.451 23.0823 24.9715 23.0775C24.9686 23.0775 24.9658 23.0775 24.9627 23.0775C24.4873 23.0775 24.0994 23.4607 24.0948 23.9372C24.0664 26.7958 25.0576 28.7727 26.7462 29.2252C26.9774 29.2871 27.2111 29.3172 27.4459 29.3172C29.6393 29.3172 31.9206 26.6877 32.962 22.8007C33.4766 20.8797 33.5837 18.9594 33.2632 17.3938Z" fill="url(#paint2_linear_5_6429)"/>
</g>
<defs>
<linearGradient id="paint0_linear_5_6429" x1="16.4802" y1="27.5" x2="47.4817" y2="27.5" gradientUnits="userSpaceOnUse">
<stop stop-color="#57F5FE"/>
<stop offset="1" stop-color="#173255"/>
</linearGradient>
<linearGradient id="paint1_linear_5_6429" x1="20.2844" y1="22.8315" x2="37.256" y2="22.8315" gradientUnits="userSpaceOnUse">
<stop stop-color="#57F5FE"/>
<stop offset="1" stop-color="#173255"/>
</linearGradient>
<linearGradient id="paint2_linear_5_6429" x1="24.0942" y1="22.2885" x2="33.4444" y2="22.2885" gradientUnits="userSpaceOnUse">
<stop stop-color="#57F5FE"/>
<stop offset="1" stop-color="#173255"/>
</linearGradient>
<clipPath id="clip0_5_6429">
<rect width="50" height="50" fill="white" transform="translate(0 0.5)"/>
</clipPath>
</defs>
</svg>
