<svg width="38" height="45" viewBox="0 0 38 45" fill="none" xmlns="http://www.w3.org/2000/svg">
<path d="M37.757 43.6825L26.558 26.8325C26.4862 26.7584 26.3995 26.6993 26.3032 26.6589C26.2069 26.6185 26.103 26.5976 25.9981 26.5976C25.8931 26.5976 25.7893 26.6185 25.693 26.6589C25.5967 26.6993 25.51 26.7584 25.4381 26.8325L22.7984 29.3745L13.5991 22.3995V14.85H22.3986V16.4C22.3986 16.6055 22.4829 16.8027 22.6329 16.948C22.7829 17.0933 22.9864 17.175 23.1986 17.175H34.7976C34.9452 17.1734 35.0896 17.1337 35.2161 17.0602C35.3426 16.9867 35.4467 16.8818 35.5176 16.7565C35.5805 16.6276 35.6063 16.4847 35.5922 16.3428C35.5781 16.2009 35.5247 16.0654 35.4376 15.9505L32.5898 10.1375L35.4376 4.3245C35.5378 4.21722 35.6058 4.08532 35.634 3.94319C35.6622 3.80107 35.6496 3.65416 35.5976 3.5185C35.5205 3.38108 35.4039 3.26834 35.2618 3.19403C35.1198 3.11972 34.9585 3.08705 34.7976 3.1H27.1982V0.775C27.1982 0.569457 27.1139 0.372333 26.9639 0.226992C26.8139 0.0816517 26.6104 0 26.3982 0H12.7992C12.587 0 12.3835 0.0816517 12.2335 0.226992C12.0835 0.372333 11.9992 0.569457 11.9992 0.775V22.3995L0.703933 29.4675C0.256694 29.905 0.00401827 30.4948 0 31.1105V42.675C0 43.2916 0.252832 43.883 0.702877 44.319C1.15292 44.755 1.76331 45 2.39977 45H37.197C37.3549 44.9992 37.5091 44.9532 37.6401 44.8677C37.771 44.7822 37.8729 44.661 37.933 44.5195C37.9983 44.3798 38.0165 44.2237 37.9849 44.0734C37.9533 43.9231 37.8735 43.7863 37.757 43.6825ZM33.2298 4.65L30.958 9.75C30.8568 9.87934 30.802 10.0372 30.802 10.1995C30.802 10.3618 30.8568 10.5197 30.958 10.649L33.2298 15.749H23.9985V14.85H26.3982C26.6104 14.85 26.8139 14.7683 26.9639 14.623C27.1139 14.4777 27.1982 14.2805 27.1982 14.075V4.65H33.2298ZM25.5983 13.3H13.5991V1.55H25.5983V13.3ZM2.39977 43.45C2.18762 43.45 1.98415 43.3683 1.83414 43.223C1.68413 43.0777 1.59985 42.8805 1.59985 42.675V31.1105C1.59857 31.0089 1.61926 30.9081 1.66059 30.8146C1.70192 30.7212 1.76297 30.6372 1.83982 30.568L12.7992 23.8255L22.2385 31.0175L28.8618 43.45H2.39977ZM31.1336 43.45L23.9343 30.475L25.9981 28.4755L35.2612 43.45H31.1336Z" fill="url(#paint0_linear_5_6443)"/>
<defs>
<linearGradient id="paint0_linear_5_6443" x1="4" y1="22.74" x2="36" y2="22.74" gradientUnits="userSpaceOnUse">
<stop stop-color="#57F5FE"/>
<stop offset="1" stop-color="#173255"/>
</linearGradient>
</defs>
</svg>
