<svg width="50" height="51" viewBox="0 0 50 51" fill="none" xmlns="http://www.w3.org/2000/svg">
<path d="M50 25.5C50 18.7509 45.7034 12.9866 39.7019 10.7982C37.5135 4.7966 31.7491 0.5 25 0.5C18.2507 0.5 12.4865 4.7966 10.2981 10.7982C4.2966 12.9866 0 18.7509 0 25.5C0 32.2491 4.2966 38.0134 10.2981 40.2018C12.4865 46.2034 18.2507 50.5 25 50.5C31.7491 50.5 37.5135 46.2034 39.7019 40.2018C45.7034 38.0134 50 32.2491 50 25.5ZM25 2.09574C30.6331 2.09574 35.5014 5.42915 37.7383 10.2266C36.6491 9.98564 35.518 9.85755 34.3574 9.85755C30.9427 9.85755 27.6701 10.9761 25.0001 12.9686C22.33 10.9761 19.0574 9.85755 15.6427 9.85755C14.482 9.85755 13.351 9.98574 12.2618 10.2266C14.4986 5.42915 19.3669 2.09574 25 2.09574ZM39.0468 16.1426C39.0468 19.1545 38.0936 21.9478 36.4735 24.2373C33.6144 21.1506 29.5293 19.215 25 19.215C20.4707 19.215 16.3856 21.1506 13.5265 24.2373C11.9064 21.9478 10.9532 19.1545 10.9532 16.1426C10.9532 14.7229 11.1656 13.352 11.5591 12.0593C12.8519 11.6657 14.2228 11.4532 15.6426 11.4532C18.5772 11.4532 21.3949 12.3734 23.7335 14.021C22.9059 14.7863 22.1546 15.6453 21.4984 16.5906C21.2471 16.9527 21.3368 17.4498 21.6989 17.7011C22.061 17.9524 22.5582 17.8626 22.8094 17.5005C23.4467 16.5823 24.184 15.7547 25 15.0264C25.8163 15.755 26.5538 16.583 27.1913 17.5017C27.4424 17.8637 27.9395 17.9537 28.3017 17.7023C28.6637 17.4512 28.7536 16.954 28.5024 16.5919C27.8462 15.6461 27.0945 14.7866 26.2665 14.021C28.6052 12.3734 31.4228 11.4532 34.3574 11.4532C35.7771 11.4532 37.1481 11.6656 38.4409 12.0591C38.8344 13.352 39.0468 14.7229 39.0468 16.1426ZM38.4409 38.9407C37.1481 39.3343 35.7772 39.5467 34.3574 39.5467C31.4228 39.5467 28.6051 38.6265 26.2665 36.9789C27.0943 36.2135 27.8457 35.3541 28.5019 34.4086C28.7532 34.0466 28.6634 33.5495 28.3014 33.2982C27.9393 33.0471 27.4422 33.1367 27.191 33.4988C26.5535 34.4173 25.8161 35.2451 25 35.9735C24.1839 35.2451 23.4465 34.4174 22.8092 33.499C22.558 33.1372 22.061 33.0471 21.6987 33.2985C21.3368 33.5498 21.2469 34.0469 21.4982 34.4089C22.1544 35.3544 22.9057 36.2136 23.7334 36.9789C21.3948 38.6265 18.5771 39.5467 15.6424 39.5467C14.2228 39.5467 12.8518 39.3343 11.559 38.9406C11.1655 37.6479 10.9531 36.277 10.9531 34.8573C10.9531 31.8454 11.9063 29.0521 13.5264 26.7626C16.3855 29.8493 20.4706 31.7849 24.9999 31.7849C29.5291 31.7849 33.6143 29.8493 36.4734 26.7626C38.0935 29.0521 39.0467 31.8454 39.0467 34.8573C39.0468 36.2771 38.8344 37.648 38.4409 38.9407ZM29.6893 25.5C29.6893 28.0856 27.5857 30.1893 25 30.1893C22.4143 30.1893 20.3107 28.0856 20.3107 25.5C20.3107 22.9144 22.4143 20.8107 25 20.8107C27.5857 20.8107 29.6893 22.9144 29.6893 25.5ZM19.9628 29.2547C17.8646 28.446 16.0081 27.1476 14.5335 25.5C16.008 23.8524 17.8646 22.5541 19.9628 21.7453C19.1794 22.7936 18.715 24.0935 18.715 25.5C18.715 26.9065 19.1794 28.2063 19.9628 29.2547ZM30.0372 29.2547C30.8206 28.2064 31.285 26.9065 31.285 25.5C31.285 24.0935 30.8206 22.7937 30.0372 21.7453C32.1354 22.554 33.9919 23.8524 35.4665 25.5C33.9919 27.1476 32.1353 28.4459 30.0372 29.2547ZM1.59574 25.5C1.59574 19.867 4.92915 14.9988 9.72649 12.7618C9.48553 13.851 9.35745 14.982 9.35745 16.1426C9.35745 19.6485 10.5169 22.8887 12.4724 25.5C10.5169 28.1113 9.35745 31.3515 9.35745 34.8574C9.35745 36.018 9.48553 37.149 9.72649 38.2382C4.92915 36.0012 1.59574 31.133 1.59574 25.5ZM25 48.9043C19.3669 48.9043 14.4986 45.5709 12.2617 40.7734C13.3509 41.0144 14.482 41.1424 15.6426 41.1424C19.0573 41.1424 22.33 40.0239 25 38.0314C27.6701 40.0239 30.9427 41.1424 34.3574 41.1424C35.5181 41.1424 36.6491 41.0143 37.7383 40.7734C35.5014 45.5709 30.6331 48.9043 25 48.9043ZM40.2735 38.2382C40.5144 37.149 40.6426 36.018 40.6426 34.8574C40.6426 31.3515 39.4831 28.1113 37.5276 25.5C39.4831 22.8887 40.6426 19.6485 40.6426 16.1426C40.6426 14.982 40.5144 13.851 40.2735 12.7618C45.071 14.9987 48.4043 19.867 48.4043 25.5C48.4043 31.133 45.071 36.0013 40.2735 38.2382Z" fill="url(#paint0_linear_5_6424)"/>
<defs>
<linearGradient id="paint0_linear_5_6424" x1="-1.87457e-07" y1="27.5" x2="50" y2="27.5" gradientUnits="userSpaceOnUse">
<stop stop-color="#57F5FE"/>
<stop offset="1" stop-color="#173255"/>
</linearGradient>
</defs>
</svg>
