<svg width="250" height="44" viewBox="0 0 250 44" fill="none" xmlns="http://www.w3.org/2000/svg">
<g clip-path="url(#clip0_2_21)">
<path d="M57.008 5.95751H66.8755L72.7222 24.5522L78.1587 11.3498H85.8794L91.2713 24.4613L97.118 5.95751H107.032L96.5242 37.9384H88.7126L82.0422 22.7709L75.3272 37.9384H67.5156L57.008 5.95751Z" fill="white"/>
<path d="M111.917 5.95751H125.713C133.89 5.95751 138.779 10.3886 138.779 17.7905C138.779 25.1924 133.89 29.6235 125.713 29.6235H121.282V37.9384H111.917V5.95751ZM125.075 22.1307C128.043 22.1307 129.78 20.5776 129.78 17.9278C129.78 15.2781 128.043 13.7249 125.075 13.7249H120.918V22.1307H125.075Z" fill="white"/>
<path d="M143.026 21.9488C143.026 11.9899 149.651 5.41009 159.702 5.41009C163.129 5.41009 166.645 6.23212 170.118 7.74067V16.4674C167.24 14.9143 164.088 13.9995 161.255 13.9995C155.955 13.9995 152.667 17.1058 152.667 21.9488C152.667 26.7919 155.955 29.8981 161.255 29.8981C164.179 29.8981 167.422 28.9388 170.347 27.3393V36.066C166.782 37.6655 163.22 38.4876 159.702 38.4876C149.697 38.4876 143.026 31.8632 143.026 21.9488Z" fill="white"/>
<path d="M28.0048 0H16.6163V5.33163C25.7938 5.33163 33.2327 12.7709 33.2327 21.9488C33.2327 31.1267 25.7938 38.566 16.6163 38.566V43.8977H28.0048C40.126 43.8977 49.9525 34.0707 49.9525 21.9488C49.9525 9.82695 40.126 0 28.0048 0Z" fill="white"/>
<path d="M0 21.9488C0 31.1267 7.43893 38.566 16.6163 38.566V5.33163C7.43893 5.33163 0 12.7709 0 21.9488Z" fill="white"/>
<path d="M190.103 12.9207L191.71 7.05415L193.322 12.9207H194.759L197.081 4.8056H195.651L194.044 10.7578L192.427 4.8056H191L189.388 10.7578L187.777 4.8056H186.345L188.666 12.9207H190.103Z" fill="white"/>
<path d="M197.202 11.1804C197.346 11.5744 197.551 11.9132 197.817 12.1968C198.083 12.4803 198.4 12.6996 198.773 12.8565C199.145 13.0117 199.557 13.0901 200.012 13.0901C200.467 13.0901 200.886 13.0117 201.256 12.8565C201.629 12.6996 201.948 12.4803 202.216 12.1968C202.483 11.9132 202.688 11.5744 202.833 11.1804C202.977 10.7863 203.05 10.3512 203.05 9.87867C203.05 9.40613 202.979 8.97104 202.833 8.57697C202.688 8.18289 202.483 7.84409 202.216 7.56057C201.948 7.27705 201.629 7.05772 201.256 6.9008C200.886 6.74567 200.47 6.66721 200.012 6.66721C199.554 6.66721 199.151 6.74567 198.778 6.90437C198.405 7.06129 198.088 7.28062 197.822 7.56057C197.557 7.84052 197.352 8.17754 197.205 8.57162C197.059 8.96569 196.986 9.40257 196.986 9.87867C196.986 10.3548 197.059 10.7863 197.204 11.1804M198.525 9.05842C198.593 8.81948 198.694 8.6162 198.83 8.45036C198.965 8.28275 199.131 8.15614 199.329 8.07055C199.527 7.98496 199.755 7.94038 200.014 7.94038C200.272 7.94038 200.502 7.98318 200.702 8.07055C200.902 8.15614 201.069 8.28453 201.203 8.45036C201.338 8.61798 201.44 8.82126 201.51 9.06198C201.579 9.30271 201.615 9.57553 201.615 9.87867C201.615 10.1818 201.579 10.4493 201.51 10.69C201.44 10.9307 201.337 11.134 201.199 11.3016C201.062 11.4692 200.895 11.5958 200.698 11.685C200.5 11.7742 200.272 11.817 200.014 11.817C199.755 11.817 199.538 11.7742 199.34 11.6868C199.142 11.5994 198.976 11.4728 198.84 11.307C198.705 11.1394 198.601 10.9361 198.53 10.6954C198.459 10.4546 198.423 10.1818 198.423 9.87867C198.423 9.57553 198.457 9.29736 198.525 9.05842Z" fill="white"/>
<path d="M205.637 9.57375C205.637 9.31163 205.67 9.07625 205.734 8.87297C205.798 8.66791 205.891 8.49673 206.012 8.35942C206.133 8.22212 206.283 8.1187 206.459 8.04737C206.636 7.97604 206.839 7.94038 207.067 7.94038C207.196 7.94038 207.312 7.94395 207.419 7.9493C207.526 7.95465 207.622 7.96713 207.709 7.98496V6.67791C207.661 6.67434 207.613 6.67078 207.565 6.66899C207.519 6.66721 207.47 6.66543 207.422 6.66543C207.059 6.66543 206.75 6.72249 206.497 6.83483C206.245 6.94717 206.039 7.09695 205.876 7.28062C205.782 7.3876 205.702 7.50529 205.634 7.62833V6.83483H204.275V12.9225H205.634V9.57375H205.637Z" fill="white"/>
<path d="M210.254 4.6362H208.895V12.9207H210.254V4.6362Z" fill="white"/>
<path d="M212.383 12.1914C212.627 12.4749 212.918 12.696 213.256 12.853C213.595 13.0117 213.963 13.0901 214.362 13.0901C214.797 13.0901 215.164 13.0099 215.46 12.8512C215.758 12.6907 215.999 12.4696 216.184 12.1825C216.202 12.1558 216.216 12.1272 216.232 12.1005V12.9207H217.591V4.8056H216.232V7.65151C216.218 7.62655 216.206 7.60158 216.19 7.5784C216.004 7.2931 215.762 7.0702 215.462 6.90794C215.163 6.74567 214.797 6.66543 214.36 6.66543C213.963 6.66543 213.593 6.74389 213.255 6.90259C212.916 7.0595 212.625 7.28062 212.381 7.56235C212.137 7.84409 211.946 8.18289 211.809 8.57697C211.671 8.97104 211.604 9.40613 211.604 9.87867C211.604 10.3512 211.671 10.7809 211.809 11.175C211.946 11.5691 212.137 11.9097 212.381 12.1932M213.139 9.09408C213.205 8.85514 213.305 8.65008 213.437 8.47889C213.57 8.30771 213.738 8.17576 213.938 8.08125C214.139 7.98674 214.373 7.94038 214.638 7.94038C214.904 7.94038 215.132 7.98496 215.328 8.0759C215.526 8.16684 215.69 8.29523 215.824 8.46463C215.958 8.63403 216.058 8.83731 216.125 9.07625C216.193 9.31519 216.227 9.58266 216.227 9.87867C216.227 10.1747 216.195 10.4279 216.131 10.6686C216.067 10.9093 215.97 11.1144 215.84 11.282C215.71 11.4514 215.546 11.5834 215.346 11.6761C215.147 11.7706 214.909 11.817 214.637 11.817C214.364 11.817 214.141 11.7706 213.941 11.6797C213.74 11.5887 213.572 11.4585 213.44 11.2909C213.306 11.1233 213.207 10.92 213.139 10.6829C213.071 10.4439 213.037 10.1765 213.037 9.87867C213.037 9.58088 213.069 9.33124 213.135 9.0923" fill="white"/>
<path d="M191.462 16.8187C191.102 16.701 190.683 16.6404 190.205 16.6404H187.004V24.7573H188.369V21.9221H190.205C190.683 21.9221 191.102 21.8632 191.462 21.7438C191.822 21.6261 192.124 21.4513 192.364 21.2231C192.605 20.9948 192.785 20.7149 192.905 20.3886C193.024 20.0623 193.085 19.6931 193.085 19.2848C193.085 18.8765 193.024 18.4966 192.905 18.1721C192.785 17.8476 192.603 17.5694 192.364 17.3412C192.124 17.1129 191.822 16.9382 191.462 16.8205M191.612 19.8697C191.546 20.0409 191.45 20.1853 191.321 20.3012C191.193 20.4171 191.036 20.5063 190.849 20.5669C190.662 20.6275 190.444 20.6578 190.2 20.6578H188.369V17.9189H190.2C190.444 17.9189 190.66 17.9492 190.849 18.0098C191.036 18.0705 191.195 18.1578 191.321 18.272C191.45 18.3861 191.546 18.5287 191.612 18.6999C191.678 18.8711 191.71 19.0673 191.71 19.2884C191.71 19.5095 191.676 19.7003 191.612 19.8715" fill="white"/>
<path d="M195.56 21.4103C195.56 21.1482 195.592 20.9128 195.656 20.7095C195.72 20.5045 195.813 20.3333 195.934 20.196C196.055 20.0587 196.205 19.9553 196.382 19.8839C196.558 19.8126 196.761 19.7769 196.99 19.7769C197.218 19.7769 197.421 19.8144 197.598 19.8875C197.774 19.9606 197.922 20.0658 198.043 20.2031C198.163 20.3404 198.256 20.5098 198.316 20.7131C198.379 20.9164 198.409 21.15 198.409 21.4121V24.7609H199.768V21.125C199.768 20.6739 199.711 20.2851 199.596 19.9553C199.482 19.6272 199.318 19.3543 199.103 19.1386C198.889 18.9228 198.634 18.7623 198.336 18.6589C198.04 18.5555 197.708 18.5038 197.344 18.5038C196.981 18.5038 196.672 18.5608 196.419 18.6732C196.168 18.7855 195.961 18.9353 195.799 19.119C195.704 19.226 195.624 19.3436 195.556 19.4667V16.6439H194.197V24.7609H195.556V21.4121L195.56 21.4103Z" fill="white"/>
<path d="M203.309 27.4641L206.702 18.6714H205.343L203.69 23.0276L201.989 18.6714H200.575L203.036 24.7145L202.036 27.4641H203.309Z" fill="white"/>
<path d="M212.98 24.4363V18.6696H211.621V19.4399C211.604 19.4132 211.589 19.3829 211.571 19.3579C211.384 19.0869 211.142 18.8765 210.844 18.7267C210.546 18.5769 210.182 18.502 209.751 18.502C209.357 18.502 208.991 18.5751 208.654 18.7195C208.319 18.864 208.027 19.0726 207.781 19.3419C207.535 19.6129 207.342 19.9392 207.203 20.319C207.064 20.7006 206.994 21.1286 206.994 21.6011C206.994 22.0736 207.064 22.4963 207.203 22.8779C207.342 23.2594 207.535 23.5858 207.781 23.855C208.027 24.1261 208.319 24.3347 208.654 24.4809C208.99 24.6271 209.355 24.7002 209.751 24.7002C210.179 24.7002 210.543 24.6253 210.842 24.4773C211.14 24.3293 211.382 24.1189 211.57 23.8497C211.589 23.8211 211.605 23.7908 211.623 23.7623V24.4203C211.623 24.7127 211.589 24.9784 211.518 25.2156C211.448 25.4527 211.345 25.656 211.206 25.8272C211.067 25.9984 210.896 26.1303 210.691 26.2213C210.486 26.3122 210.252 26.3586 209.988 26.3586C209.624 26.3586 209.321 26.2765 209.084 26.1107C208.845 25.9449 208.674 25.7059 208.569 25.3957L207.182 25.7059C207.276 26.0144 207.41 26.289 207.588 26.528C207.765 26.7687 207.975 26.9702 208.216 27.1342C208.458 27.2983 208.729 27.4213 209.027 27.5069C209.325 27.5925 209.646 27.6335 209.988 27.6335C210.47 27.6335 210.896 27.5533 211.268 27.3946C211.641 27.2341 211.953 27.013 212.206 26.7295C212.459 26.4459 212.652 26.1089 212.784 25.7184C212.916 25.3279 212.982 24.9017 212.982 24.4381M211.522 22.3554C211.454 22.5783 211.352 22.7709 211.215 22.9331C211.078 23.0954 210.91 23.2184 210.714 23.3022C210.516 23.3878 210.289 23.4288 210.034 23.4288C209.779 23.4288 209.558 23.3878 209.364 23.304C209.168 23.222 209.002 23.1007 208.863 22.9438C208.724 22.7869 208.619 22.5943 208.544 22.3661C208.471 22.1396 208.433 21.8846 208.433 21.6029C208.433 21.3212 208.469 21.0786 208.54 20.8522C208.612 20.6275 208.717 20.4349 208.856 20.2744C208.995 20.1157 209.163 19.9909 209.36 19.9053C209.558 19.8197 209.781 19.7752 210.034 19.7752C210.288 19.7752 210.5 19.8162 210.696 19.8982C210.894 19.9802 211.06 20.1015 211.197 20.2584C211.334 20.4171 211.44 20.6079 211.513 20.8326C211.586 21.0573 211.623 21.314 211.623 21.5993C211.623 21.8846 211.589 22.1289 211.522 22.3518" fill="white"/>
<path d="M216.029 18.6714H214.67V24.7591H216.029V18.6714Z" fill="white"/>
<path d="M216.029 16.5013H214.67V17.7477H216.029V16.5013Z" fill="white"/>
<path d="M219.501 16.6422H218.147V18.6714H217.042V19.9339H218.147V23.0401C218.147 23.3112 218.19 23.5537 218.274 23.7676C218.36 23.9816 218.479 24.1617 218.638 24.3079C218.796 24.4542 218.991 24.5665 219.221 24.6432C219.453 24.7198 219.715 24.7591 220.007 24.7591H221.287V23.5537H220.289C220.153 23.5537 220.036 23.5376 219.938 23.5055C219.84 23.4734 219.756 23.4253 219.693 23.3611C219.629 23.2969 219.581 23.2149 219.549 23.1168C219.517 23.0169 219.501 22.8992 219.501 22.7637V19.9339H221.287V18.6714H219.501V16.6422Z" fill="white"/>
<path d="M222.824 24.4274C223.003 24.5879 223.218 24.7109 223.47 24.7965C223.721 24.8821 224.001 24.9267 224.31 24.9267C224.771 24.9267 225.164 24.8447 225.488 24.6788C225.811 24.513 226.075 24.2669 226.278 23.9406V24.7573H227.631V21.1607C227.631 20.2584 227.421 19.5897 226.999 19.1546C226.576 18.7195 225.929 18.5002 225.057 18.5002C224.385 18.5002 223.828 18.6464 223.388 18.9371C222.947 19.2277 222.648 19.6521 222.486 20.2085L223.719 20.5401C223.814 20.2477 223.967 20.0337 224.181 19.8982C224.395 19.7627 224.686 19.6949 225.055 19.6949C225.255 19.6949 225.431 19.7199 225.585 19.768C225.738 19.8162 225.866 19.8929 225.971 19.9963C226.075 20.0997 226.152 20.2299 226.203 20.385C226.248 20.5223 226.271 20.6828 226.276 20.8665L224.673 21.0626C224.286 21.1107 223.942 21.1892 223.641 21.2944C223.34 21.3996 223.088 21.5369 222.887 21.7063C222.684 21.8757 222.53 22.0754 222.425 22.3037C222.32 22.5319 222.266 22.7976 222.266 23.099C222.266 23.3736 222.314 23.6232 222.412 23.8479C222.511 24.0726 222.648 24.2669 222.828 24.4256M223.671 22.6211C223.719 22.5141 223.798 22.4214 223.905 22.3429C224.012 22.2644 224.144 22.1985 224.303 22.1485C224.459 22.0986 224.648 22.0594 224.866 22.0326L226.28 21.8561V21.9132C226.28 22.0487 226.275 22.1985 226.264 22.3643C226.253 22.5301 226.216 22.6853 226.152 22.8315C226.102 22.967 226.032 23.0936 225.938 23.2113C225.843 23.329 225.731 23.4324 225.599 23.518C225.467 23.6054 225.322 23.6714 225.162 23.7177C225.003 23.7641 224.829 23.789 224.641 23.789C224.292 23.789 224.03 23.7213 223.859 23.5858C223.686 23.4502 223.6 23.2487 223.6 22.9831C223.6 22.8475 223.625 22.7263 223.673 22.6193" fill="white"/>
<path d="M230.565 16.4728H229.206V24.7573H230.565V16.4728Z" fill="white"/>
<path d="M188.616 30.3974C188.823 30.1406 189.08 29.9409 189.387 29.8C189.693 29.6592 190.043 29.5879 190.439 29.5879C190.744 29.5879 191.016 29.6271 191.261 29.7038C191.505 29.7804 191.722 29.891 191.911 30.0354C192.1 30.1799 192.263 30.3582 192.398 30.5686C192.534 30.779 192.641 31.0162 192.719 31.2783L194.089 30.9003C193.966 30.5062 193.793 30.1478 193.57 29.8268C193.349 29.5058 193.083 29.233 192.774 29.0101C192.466 28.7872 192.116 28.6143 191.726 28.4912C191.336 28.37 190.906 28.3076 190.435 28.3076C189.827 28.3076 189.281 28.4092 188.8 28.6143C188.319 28.8193 187.912 29.1082 187.58 29.4791C187.247 29.8518 186.994 30.2958 186.817 30.8147C186.641 31.3336 186.552 31.906 186.552 32.5336C186.552 33.1613 186.639 33.7337 186.817 34.2526C186.994 34.7715 187.249 35.2173 187.58 35.5882C187.914 35.9591 188.319 36.2479 188.8 36.453C189.281 36.6581 189.825 36.7597 190.435 36.7597C190.904 36.7597 191.336 36.6991 191.726 36.576C192.116 36.4548 192.466 36.2818 192.774 36.0571C193.083 35.8342 193.349 35.5614 193.57 35.2404C193.791 34.9195 193.964 34.5611 194.089 34.167L192.719 33.789C192.641 34.0529 192.534 34.2882 192.398 34.4987C192.263 34.7091 192.1 34.8874 191.911 35.0318C191.721 35.1763 191.505 35.2868 191.261 35.3635C191.016 35.4402 190.742 35.4794 190.439 35.4794C190.029 35.4794 189.672 35.4081 189.365 35.2672C189.059 35.1263 188.804 34.9266 188.599 34.6698C188.393 34.4131 188.24 34.1028 188.137 33.739C188.033 33.3771 187.982 32.9741 187.982 32.5301C187.982 32.086 188.035 31.6795 188.146 31.3175C188.254 30.9573 188.413 30.647 188.62 30.3903" fill="white"/>
<path d="M200.221 31.2319C199.953 30.9484 199.634 30.7291 199.263 30.5722C198.89 30.417 198.477 30.3386 198.017 30.3386C197.557 30.3386 197.155 30.417 196.783 30.5757C196.41 30.7326 196.093 30.952 195.827 31.2319C195.561 31.5119 195.356 31.8489 195.21 32.243C195.064 32.637 194.991 33.0739 194.991 33.55C194.991 34.0261 195.064 34.4576 195.208 34.8517C195.353 35.2458 195.558 35.5846 195.823 35.8681C196.089 36.1516 196.407 36.371 196.779 36.5279C197.152 36.683 197.564 36.7615 198.018 36.7615C198.473 36.7615 198.892 36.683 199.265 36.5279C199.637 36.371 199.957 36.1516 200.222 35.8681C200.49 35.5846 200.695 35.2458 200.839 34.8517C200.984 34.4576 201.057 34.0226 201.057 33.55C201.057 33.0775 200.984 32.6424 200.839 32.2483C200.695 31.8542 200.49 31.5154 200.222 31.2319M199.514 34.3631C199.445 34.6039 199.341 34.8071 199.204 34.9748C199.067 35.1424 198.899 35.269 198.703 35.3581C198.507 35.4455 198.277 35.4901 198.018 35.4901C197.76 35.4901 197.542 35.4473 197.344 35.3599C197.147 35.2725 196.981 35.1459 196.845 34.9801C196.71 34.8143 196.606 34.6092 196.535 34.3685C196.464 34.1278 196.428 33.8549 196.428 33.5518C196.428 33.2487 196.462 32.9705 196.53 32.7316C196.597 32.4926 196.699 32.2893 196.834 32.1235C196.97 31.9559 197.136 31.8293 197.334 31.7437C197.53 31.6581 197.758 31.6135 198.018 31.6135C198.279 31.6135 198.507 31.6563 198.707 31.7437C198.906 31.8293 199.072 31.9577 199.208 32.1235C199.343 32.2911 199.445 32.4944 199.514 32.7351C199.584 32.9758 199.62 33.2487 199.62 33.5518C199.62 33.8549 199.584 34.1224 199.514 34.3631Z" fill="white"/>
<path d="M210.386 30.9234C210.195 30.7273 209.961 30.5811 209.681 30.483C209.401 30.3849 209.079 30.3368 208.715 30.3368C208.389 30.3368 208.1 30.3992 207.85 30.5222C207.601 30.647 207.39 30.8093 207.223 31.0126C207.146 31.1035 207.078 31.2016 207.018 31.305C206.943 31.1624 206.857 31.034 206.754 30.9234C206.574 30.7273 206.347 30.5811 206.078 30.483C205.807 30.3849 205.495 30.3368 205.142 30.3368C204.908 30.3368 204.703 30.3689 204.527 30.4331C204.35 30.4973 204.197 30.5829 204.065 30.6916C203.933 30.8004 203.824 30.927 203.735 31.0697C203.701 31.1249 203.671 31.1838 203.642 31.2408V30.5062H202.284V36.5939H203.642V32.9634C203.642 32.7565 203.665 32.5693 203.712 32.4035C203.758 32.2358 203.829 32.095 203.924 31.9773C204.018 31.8614 204.138 31.7704 204.284 31.7062C204.43 31.642 204.601 31.6099 204.798 31.6099C204.994 31.6099 205.163 31.642 205.308 31.7062C205.452 31.7704 205.57 31.8596 205.662 31.9773C205.755 32.0932 205.825 32.2358 205.871 32.4035C205.917 32.5711 205.941 32.7583 205.941 32.9634V36.5939H207.299V32.9598L207.305 32.9651C207.305 32.7583 207.328 32.5711 207.374 32.4052C207.421 32.2376 207.492 32.0967 207.586 31.9791C207.681 31.8632 207.8 31.7722 207.947 31.708C208.093 31.6438 208.264 31.6117 208.46 31.6117C208.656 31.6117 208.826 31.6438 208.97 31.708C209.114 31.7722 209.234 31.8614 209.328 31.9791C209.423 32.095 209.492 32.2376 209.537 32.4052C209.582 32.5728 209.605 32.7601 209.605 32.9651V36.5956H210.963V32.6781C210.963 32.2875 210.915 31.947 210.817 31.6545C210.719 31.3639 210.577 31.1196 210.386 30.9252" fill="white"/>
<path d="M220.519 30.9234C220.33 30.7273 220.095 30.5811 219.815 30.483C219.535 30.3849 219.212 30.3368 218.848 30.3368C218.522 30.3368 218.233 30.3992 217.983 30.5222C217.734 30.647 217.523 30.8093 217.356 31.0126C217.279 31.1035 217.211 31.2016 217.152 31.305C217.078 31.1624 216.992 31.034 216.889 30.9234C216.708 30.7273 216.484 30.5811 216.213 30.483C215.942 30.3849 215.63 30.3368 215.277 30.3368C215.043 30.3368 214.84 30.3689 214.663 30.4331C214.487 30.4973 214.333 30.5829 214.201 30.6916C214.07 30.8004 213.961 30.927 213.872 31.0697C213.838 31.1249 213.807 31.1838 213.779 31.2408V30.5062H212.42V36.5939H213.779V32.9634C213.779 32.7565 213.802 32.5693 213.85 32.4035C213.897 32.2358 213.968 32.095 214.061 31.9773C214.155 31.8614 214.275 31.7704 214.421 31.7062C214.567 31.642 214.738 31.6099 214.934 31.6099C215.13 31.6099 215.3 31.642 215.444 31.7062C215.589 31.7704 215.706 31.8596 215.799 31.9773C215.892 32.0932 215.961 32.2358 216.008 32.4035C216.054 32.5711 216.077 32.7583 216.077 32.9634V36.5939H217.436V32.9598L217.441 32.9651C217.441 32.7583 217.464 32.5711 217.511 32.4052C217.559 32.2376 217.629 32.0967 217.723 31.9791C217.818 31.8632 217.937 31.7722 218.083 31.708C218.229 31.6438 218.401 31.6117 218.597 31.6117C218.793 31.6117 218.962 31.6438 219.107 31.708C219.251 31.7722 219.371 31.8614 219.465 31.9791C219.56 32.095 219.629 32.2376 219.674 32.4052C219.718 32.5728 219.741 32.7601 219.741 32.9651V36.5956H221.1V32.6781C221.1 32.2875 221.052 31.947 220.954 31.6545C220.856 31.3639 220.713 31.1196 220.522 30.9252" fill="white"/>
<path d="M226.66 33.8549C226.66 34.1188 226.628 34.3507 226.563 34.5539C226.499 34.7572 226.407 34.9284 226.285 35.0675C226.164 35.2066 226.014 35.3118 225.838 35.3831C225.661 35.4544 225.458 35.4901 225.23 35.4901C225.001 35.4901 224.798 35.4526 224.622 35.3795C224.445 35.3064 224.297 35.2012 224.176 35.0639C224.056 34.9266 223.964 34.7554 223.903 34.5504C223.841 34.3453 223.81 34.1135 223.81 33.8549V30.5062H222.452V34.142C222.452 34.5932 222.509 34.9819 222.623 35.3118C222.737 35.6417 222.901 35.9127 223.117 36.1285C223.331 36.3442 223.586 36.5047 223.884 36.6081C224.181 36.7115 224.511 36.7633 224.875 36.7633C225.239 36.7633 225.547 36.7062 225.799 36.5939C226.05 36.4815 226.257 36.3335 226.419 36.1481C226.514 36.0411 226.594 35.9234 226.662 35.7986V36.5921H228.02V30.5044H226.662V33.8532L226.66 33.8549Z" fill="white"/>
<path d="M234.487 30.9716C234.273 30.7558 234.018 30.5953 233.721 30.4919C233.423 30.3885 233.093 30.3368 232.729 30.3368C232.366 30.3368 232.057 30.3938 231.806 30.5062C231.554 30.6185 231.347 30.7683 231.185 30.952C231.091 31.059 231.01 31.1766 230.943 31.2997V30.5062H229.584V36.5939H230.943V33.2451C230.943 32.983 230.975 32.7476 231.039 32.5425C231.103 32.3375 231.196 32.1663 231.319 32.029C231.44 31.8917 231.59 31.7883 231.766 31.7169C231.943 31.6456 232.146 31.6099 232.374 31.6099C232.603 31.6099 232.806 31.6456 232.982 31.7205C233.159 31.7936 233.307 31.8988 233.428 32.0361C233.548 32.1734 233.64 32.3428 233.701 32.5461C233.763 32.7494 233.794 32.983 233.794 33.2451V36.5939H235.152V32.958C235.152 32.5069 235.095 32.1181 234.981 31.7883C234.867 31.4602 234.703 31.1873 234.487 30.9716Z" fill="white"/>
<path d="M238.089 30.5062H236.73V36.5939H238.089V30.5062Z" fill="white"/>
<path d="M238.089 28.3379H236.73V29.5843H238.089V28.3379Z" fill="white"/>
<path d="M241.561 28.4787H240.209V30.508H239.104V31.7704H240.209V34.8767C240.209 35.1477 240.252 35.3902 240.336 35.6042C240.421 35.8182 240.541 35.9983 240.7 36.1445C240.858 36.2907 241.053 36.4031 241.283 36.4797C241.514 36.5564 241.777 36.5956 242.069 36.5956H243.349V35.3902H242.351C242.215 35.3902 242.097 35.3742 241.998 35.3421C241.898 35.31 241.818 35.2618 241.753 35.1977C241.689 35.1335 241.641 35.0514 241.609 34.9534C241.577 34.8535 241.561 34.7358 241.561 34.6003V31.7704H243.347V30.508H241.561V28.4787Z" fill="white"/>
<path d="M248.6 30.5062L246.946 34.8624L245.246 30.5062H243.832L246.293 36.5511L245.291 39.2989H246.566L249.959 30.5062H248.6Z" fill="white"/>
</g>
<defs>
<clipPath id="clip0_2_21">
<rect width="250" height="44" fill="white"/>
</clipPath>
</defs>
</svg>
